<svg width="1000" height="1000" viewBox="0 0 1000 1000" xmlns="http://www.w3.org/2000/svg"><defs/><path fill="#0f3877" transform="matrix(0.49452792886808183 0 0 0.49452792886808183 32.501854173782334 23.689962018280294)" d="M 408.99658245219 1027.21104749016 C 439.99658245219 1018.21104749016 468.29658245219 1002.91104749016 488.79658245219 984.11104749016 C 513.99658245219 961.01104749016 527.39658245219 932.71104749016 527.59658245219 902.41104749016 C 527.79658245219 846.61104749016 482.59658245219 799.91104749016 426.89658245219 798.41104749016 C 387.99658245219 797.31104749016 352.09658245219 818.51104749016 333.29658245219 853.71104749016 C 314.59658245219 888.91104749016 316.99658245219 930.51104749016 339.59658245219 962.21104749016 L 355.99658245219 950.51104749016 C 337.79658245219 925.11104749016 335.89658245219 891.61104749016 351.09658245219 863.21104749016 C 366.39658245219 834.41104749016 394.59658245219 817.71104749016 426.29658245219 818.51104749016 C 471.19658245219 819.71104749016 507.59658245219 857.31104749016 507.39658245219 902.31104749016 C 507.19658245219 957.81104749016 453.49658245219 993.21104749016 403.39658245219 1007.81104749016 C 386.29658245219 1012.81104749016 374.39658245219 1028.71104749016 374.39658245219 1046.61104749016 L 374.39658245219 1135.71104749016 L 435.09658245219 1208.11104749016 L 494.39658245219 1138.11104749016 L 494.39658245219 1037.81104749016 L 474.19658245219 1037.81104749016 L 474.19658245219 1122.11104749016 L 445.89658245219 1122.11104749016 L 445.89658245219 1037.81104749016 L 425.69658245219 1037.81104749016 L 425.69658245219 1122.11104749016 L 394.49658245219 1122.11104749016 L 394.49658245219 1046.71104749016 C 394.49658245219 1037.71104749016 400.49658245219 1029.71104749016 408.99658245219 1027.21104749016 Z M 464.59658245219 1142.21104749016 L 435.09658245219 1176.91104749016 L 405.99658245219 1142.21104749016 L 464.59658245219 1142.21104749016 Z"/><path fill="#0f3877" transform="matrix(0.49452792886808183 0 0 0.49452792886808183 32.501854173782334 23.689962018280294)" d="M 413.99658245219 718.21104749016 L 434.19658245219 718.21104749016 L 434.19658245219 776.51104749016 L 413.99658245219 776.51104749016 Z"/><path fill="#0f3877" transform="matrix(0.3497301512955075 -0.3496312457097338 0.3496312457097338 0.3497301512955075 56.64638905608025 161.6617705886886)" d="M -49.59218068753 697.41554828064 L 8.70781931247 697.41554828064 L 8.70781931247 717.61554828065 L -49.59218068753 717.61554828065 Z"/><path fill="#0f3877" transform="matrix(0.49452792886808183 0 0 0.49452792886808183 32.501854173782334 23.689962018280294)" d="M 550.69658245219 894.61104749016 L 608.99658245219 894.61104749016 L 608.99658245219 914.81104749016 L 550.69658245219 914.81104749016 Z"/><path fill="#0f3877" transform="matrix(0.49452792886808183 0 0 0.49452792886808183 32.501854173782334 23.689962018280294)" d="M 237.59658245219 893.01104749016 L 295.89658245219 893.01104749016 L 295.89658245219 913.21104749016 L 237.59658245219 913.21104749016 Z"/><path fill="#0f3877" transform="matrix(0.3496806985026206 -0.3496806985026206 0.3496806985026206 0.3496806985026206 24.99135961247702 84.11118655621095)" d="M -251.98084078487 677.16156833712 L -231.78084078487 677.16156833712 L -231.78084078487 735.46156833712 L -251.98084078487 735.46156833712 Z"/><path id="text" fill="#0f3877" transform="matrix(1.453433714900477 0 0 1.453433714900477 284.6668740828426 138.80371456740767)" d="M 65.71381728414 206.84051447441 L 83.01069228414 206.84051447441 C 87.91694228414 206.84051447441 91.44819228414 207.85613947441 93.60444228414 209.88738947441 C 95.76069228414 211.91863947441 97.05756728414 215.37176447441 97.49506728414 220.24676447441 C 97.68256728414 222.24676447441 97.77631728414 225.36395197441 97.77631728414 229.59832697441 C 97.77631728414 233.83270197441 97.22162978414 237.38738947441 96.11225478414 240.26238947441 C 95.00287978414 243.13738947441 93.04194228414 244.99676447441 90.22944228414 245.84051447441 C 92.29194228414 246.18426447441 93.85444228414 247.27020197441 94.91694228414 249.09832697441 C 95.97944228414 250.92645197441 96.72944228414 253.83270197441 97.16694228414 257.81707697441 C 97.60444228414 261.80145197441 97.82319228414 267.72332697441 97.82319228414 275.58270197441 C 97.82319228414 283.44207697441 98.07319228414 288.02801447441 98.57319228414 289.34051447441 L 88.91694228414 289.34051447441 C 88.41694228414 288.34051447441 88.16694228414 279.07488947441 88.16694228414 261.54363947441 C 88.16694228414 255.63738947441 87.58881728414 252.20770197441 86.43256728414 251.25457697441 C 85.27631728414 250.30145197441 83.52631728414 249.82488947441 81.18256728414 249.82488947441 L 75.41694228414 249.49676447441 L 75.41694228414 289.34051447441 L 65.71381728414 289.34051447441 L 65.71381728414 206.84051447441 Z M 88.16694228414 227.04363947441 C 88.16694228414 220.69988947441 87.59662978414 217.02801447441 86.45600478414 216.02801447441 C 85.31537978414 215.02801447441 83.66694228414 214.52801447441 81.51069228414 214.52801447441 L 75.41694228414 214.52801447441 L 75.41694228414 242.37176447441 L 81.60444228414 242.37176447441 C 83.47944228414 242.37176447441 84.85444228414 242.01238947441 85.72944228414 241.29363947441 C 86.60444228414 240.57488947441 87.22944228414 239.19988947441 87.60444228414 237.16863947441 C 87.97944228414 235.13738947441 88.16694228414 231.94988947441 88.16694228414 227.60613947441 L 88.16694228414 227.04363947441 Z M 109.44819228414 240.82488947441 C 109.44819228414 231.94988947441 111.04194228414 225.77801447441 114.22944228414 222.30926447441 C 116.72944228414 219.55926447441 120.41694228414 218.18426447441 125.29194228414 218.18426447441 C 132.35444228414 218.18426447441 136.79194228414 221.23113947441 138.60444228414 227.32488947441 C 139.60444228414 230.76238947441 140.10444228414 235.40301447441 140.10444228414 241.24676447441 L 140.10444228414 254.51238947441 L 119.10444228414 254.51238947441 L 119.10444228414 268.52801447441 C 119.10444228414 274.62176447441 119.58881728414 278.41863947441 120.55756728414 279.91863947441 C 121.52631728414 281.41863947441 123.05756728414 282.16863947441 125.15131728414 282.16863947441 C 127.24506728414 282.16863947441 128.64350478414 281.29363947441 129.34662978414 279.54363947441 C 130.04975478414 277.79363947441 130.41694228414 275.89520197441 130.44819228414 273.84832697441 C 130.47944228414 271.80145197441 130.49506728414 270.07488947441 130.49506728414 268.66863947441 L 130.49506728414 262.99676447441 L 139.91694228414 262.99676447441 L 139.91694228414 265.99676447441 C 139.91694228414 273.46551447441 139.39350478414 278.69988947441 138.34662978414 281.69988947441 C 137.29975478414 284.69988947441 135.71381728414 286.86395197441 133.58881728414 288.19207697441 C 131.46381728414 289.52020197441 128.83100478414 290.18426447441 125.69037978414 290.18426447441 C 122.54975478414 290.18426447441 120.03412978414 289.78582697441 118.14350478414 288.98895197441 C 116.25287978414 288.19207697441 114.75287978414 287.13738947441 113.64350478414 285.82488947441 C 112.53412978414 284.51238947441 111.55756728414 282.41863947441 110.71381728414 279.54363947441 C 109.87006728414 276.66863947441 109.44819228414 272.04363947441 109.44819228414 265.66863947441 L 109.44819228414 240.82488947441 Z M 130.49506728414 239.04363947441 C 130.49506728414 234.04363947441 130.31537978414 231.02801447441 129.95600478414 229.99676447441 C 129.59662978414 228.96551447441 129.13569228414 228.05926447441 128.57319228414 227.27801447441 C 128.01069228414 226.49676447441 126.99506728414 226.10613947441 125.52631728414 226.10613947441 C 122.71381728414 226.10613947441 120.93256728414 227.28582697441 120.18256728414 229.64520197441 C 119.43256728414 232.00457697441 119.05756728414 235.24676447441 119.05756728414 239.37176447441 L 119.05756728414 247.99676447441 L 130.49506728414 247.99676447441 L 130.49506728414 239.04363947441 Z M 161.99506728414 226.48113947441 C 162.62006728414 224.19988947441 163.98725478414 222.23895197441 166.09662978414 220.59832697441 C 168.20600478414 218.95770197441 170.83100478414 218.13738947441 173.97162978414 218.13738947441 C 177.11225478414 218.13738947441 179.65912978414 219.41082697441 181.61225478414 221.95770197441 C 183.56537978414 224.50457697441 184.54194228414 228.27801447441 184.54194228414 233.27801447441 L 184.54194228414 289.34051447441 L 174.93256728414 289.34051447441 L 174.93256728414 233.32488947441 C 174.93256728414 230.94988947441 174.38569228414 229.16863947441 173.29194228414 227.98113947441 C 172.19819228414 226.79363947441 170.68256728414 226.19988947441 168.74506728414 226.19988947441 C 166.80756728414 226.19988947441 165.19819228414 226.87176447441 163.91694228414 228.21551447441 C 162.63569228414 229.55926447441 161.99506728414 231.57488947441 161.99506728414 234.26238947441 L 161.99506728414 289.34051447441 L 152.38569228414 289.34051447441 L 152.38569228414 219.02801447441 L 161.99506728414 219.02801447441 L 161.99506728414 226.48113947441 Z M 199.54194228414 206.84051447441 L 209.15131728414 206.84051447441 L 209.15131728414 219.59051447441 L 216.74506728414 219.59051447441 L 216.74506728414 226.71551447441 L 209.15131728414 226.71551447441 L 209.15131728414 278.04363947441 C 209.15131728414 279.85613947441 209.57319228414 280.98895197441 210.41694228414 281.44207697441 C 211.26069228414 281.89520197441 213.40131728414 282.12176447441 216.83881728414 282.12176447441 L 216.83881728414 289.76238947441 L 210.22944228414 289.76238947441 C 205.79194228414 289.76238947441 202.90131728414 288.95770197441 201.55756728414 287.34832697441 C 200.21381728414 285.73895197441 199.54194228414 282.91863947441 199.54194228414 278.88738947441 L 199.54194228414 226.71551447441 L 193.12006728414 226.71551447441 L 193.12006728414 219.59051447441 L 199.54194228414 219.59051447441 L 199.54194228414 206.84051447441 Z M 261.51069228414 206.84051447441 L 273.65131728414 206.84051447441 L 273.65131728414 289.34051447441 L 265.02631728414 289.34051447441 L 265.02631728414 256.24676447441 L 265.82319228414 225.40301447441 L 254.62006728414 289.19988947441 L 245.85444228414 289.19988947441 L 234.18256728414 225.40301447441 L 234.97944228414 256.24676447441 L 234.97944228414 289.34051447441 L 226.40131728414 289.34051447441 L 226.40131728414 206.84051447441 L 238.49506728414 206.84051447441 L 250.30756728414 274.66863947441 L 261.51069228414 206.84051447441 Z M 307.87006728414 250.57488947441 C 303.93256728414 252.35613947441 301.30756728414 253.73113947441 299.99506728414 254.69988947441 C 298.68256728414 255.66863947441 297.69037978414 256.80145197441 297.01850478414 258.09832697441 C 296.34662978414 259.39520197441 296.01069228414 261.52801447441 296.01069228414 264.49676447441 L 296.01069228414 271.01238947441 C 296.01069228414 275.10613947441 296.37006728414 277.98895197441 297.08881728414 279.66082697441 C 297.80756728414 281.33270197441 299.04194228414 282.16863947441 300.79194228414 282.16863947441 C 302.54194228414 282.16863947441 304.04194228414 281.66082697441 305.29194228414 280.64520197441 C 306.54194228414 279.62957697441 307.40131728414 278.52801447441 307.87006728414 277.34051447441 L 307.87006728414 250.57488947441 Z M 287.19819228414 239.37176447441 C 287.19819228414 230.87176447441 288.52631728414 225.21551447441 291.18256728414 222.40301447441 C 293.83881728414 219.59051447441 297.62006728414 218.18426447441 302.52631728414 218.18426447441 C 307.43256728414 218.18426447441 310.98725478414 219.37176447441 313.19037978414 221.74676447441 C 315.39350478414 224.12176447441 316.74506728414 227.93426447441 317.24506728414 233.18426447441 C 317.46381728414 235.43426447441 317.57319228414 238.19988947441 317.57319228414 241.48113947441 L 317.57319228414 289.34051447441 L 307.91694228414 289.34051447441 L 307.91694228414 283.24676447441 C 307.41694228414 284.93426447441 306.32319228414 286.47332697441 304.63569228414 287.86395197441 C 302.94819228414 289.25457697441 300.85444228414 289.94988947441 298.35444228414 289.94988947441 C 290.38569228414 289.94988947441 286.37006728414 283.73113947441 286.30756728414 271.29363947441 L 286.30756728414 264.44988947441 C 286.30756728414 260.41863947441 287.40912978414 256.97332697441 289.61225478414 254.11395197441 C 291.81537978414 251.25457697441 297.90131728414 247.99676447441 307.87006728414 244.34051447441 L 307.87006728414 238.90301447441 C 307.87006728414 232.87176447441 307.43256728414 229.24676447441 306.55756728414 228.02801447441 C 305.68256728414 226.80926447441 304.19037978414 226.19988947441 302.08100478414 226.19988947441 C 299.97162978414 226.19988947441 298.55756728414 227.12176447441 297.83881728414 228.96551447441 C 297.12006728414 230.80926447441 296.76069228414 234.13738947441 296.76069228414 238.94988947441 L 296.76069228414 241.38738947441 L 287.19819228414 241.38738947441 L 287.19819228414 239.37176447441 Z M 332.38569228414 206.84051447441 L 341.99506728414 206.84051447441 L 341.99506728414 219.59051447441 L 349.58881728414 219.59051447441 L 349.58881728414 226.71551447441 L 341.99506728414 226.71551447441 L 341.99506728414 278.04363947441 C 341.99506728414 279.85613947441 342.41694228414 280.98895197441 343.26069228414 281.44207697441 C 344.10444228414 281.89520197441 346.24506728414 282.12176447441 349.68256728414 282.12176447441 L 349.68256728414 289.76238947441 L 343.07319228414 289.76238947441 C 338.63569228414 289.76238947441 335.74506728414 288.95770197441 334.40131728414 287.34832697441 C 333.05756728414 285.73895197441 332.38569228414 282.91863947441 332.38569228414 278.88738947441 L 332.38569228414 226.71551447441 L 325.96381728414 226.71551447441 L 325.96381728414 219.59051447441 L 332.38569228414 219.59051447441 L 332.38569228414 206.84051447441 Z M 358.30756728414 240.82488947441 C 358.30756728414 231.94988947441 359.90131728414 225.77801447441 363.08881728414 222.30926447441 C 365.58881728414 219.55926447441 369.27631728414 218.18426447441 374.15131728414 218.18426447441 C 381.21381728414 218.18426447441 385.65131728414 221.23113947441 387.46381728414 227.32488947441 C 388.46381728414 230.76238947441 388.96381728414 235.40301447441 388.96381728414 241.24676447441 L 388.96381728414 254.51238947441 L 367.96381728414 254.51238947441 L 367.96381728414 268.52801447441 C 367.96381728414 274.62176447441 368.44819228414 278.41863947441 369.41694228414 279.91863947441 C 370.38569228414 281.41863947441 371.91694228414 282.16863947441 374.01069228414 282.16863947441 C 376.10444228414 282.16863947441 377.50287978414 281.29363947441 378.20600478414 279.54363947441 C 378.90912978414 277.79363947441 379.27631728414 275.89520197441 379.30756728414 273.84832697441 C 379.33881728414 271.80145197441 379.35444228414 270.07488947441 379.35444228414 268.66863947441 L 379.35444228414 262.99676447441 L 388.77631728414 262.99676447441 L 388.77631728414 265.99676447441 C 388.77631728414 273.46551447441 388.25287978414 278.69988947441 387.20600478414 281.69988947441 C 386.15912978414 284.69988947441 384.57319228414 286.86395197441 382.44819228414 288.19207697441 C 380.32319228414 289.52020197441 377.69037978414 290.18426447441 374.54975478414 290.18426447441 C 371.40912978414 290.18426447441 368.89350478414 289.78582697441 367.00287978414 288.98895197441 C 365.11225478414 288.19207697441 363.61225478414 287.13738947441 362.50287978414 285.82488947441 C 361.39350478414 284.51238947441 360.41694228414 282.41863947441 359.57319228414 279.54363947441 C 358.72944228414 276.66863947441 358.30756728414 272.04363947441 358.30756728414 265.66863947441 L 358.30756728414 240.82488947441 Z M 379.35444228414 239.04363947441 C 379.35444228414 234.04363947441 379.17475478414 231.02801447441 378.81537978414 229.99676447441 C 378.45600478414 228.96551447441 377.99506728414 228.05926447441 377.43256728414 227.27801447441 C 376.87006728414 226.49676447441 375.85444228414 226.10613947441 374.38569228414 226.10613947441 C 371.57319228414 226.10613947441 369.79194228414 227.28582697441 369.04194228414 229.64520197441 C 368.29194228414 232.00457697441 367.91694228414 235.24676447441 367.91694228414 239.37176447441 L 367.91694228414 247.99676447441 L 379.35444228414 247.99676447441 L 379.35444228414 239.04363947441 Z"/></svg>